<svg id="Capa_1" enable-background="new 0 0 512 512" height="512" viewBox="0 0 512 512" width="512" xmlns="http://www.w3.org/2000/svg"><g><g><path d="m431.514 0h-320.804c-14.237 0-25.778 11.541-25.778 25.778v9.568l20.038 212.396-20.038 210.899v27.581c0 14.237 11.541 25.778 25.778 25.778h320.804c14.237 0 25.778-11.541 25.778-25.778v-460.444c0-14.237-11.541-25.778-25.778-25.778zm-296.992 424.331c-16.321 0-29.552-13.231-29.552-29.552s13.231-29.552 29.552-29.552 29.552 13.231 29.552 29.552-13.23 29.552-29.552 29.552zm0-94.549c-16.321 0-29.552-13.231-29.552-29.552s13.231-29.552 29.552-29.552 29.552 13.231 29.552 29.552c.001 16.321-13.23 29.552-29.552 29.552zm0-94.55c-16.321 0-29.552-13.231-29.552-29.552s13.231-29.553 29.552-29.553 29.552 13.231 29.552 29.553c.001 16.321-13.23 29.552-29.552 29.552zm0-94.549c-16.321 0-29.552-13.231-29.552-29.552s13.231-29.552 29.552-29.552 29.552 13.231 29.552 29.552c.001 16.321-13.23 29.552-29.552 29.552z" fill="#b3e59f"/></g><g><path d="m431.514 0h-9.686v450.758c0 14.237-11.541 25.778-25.778 25.778h-311.118v9.686c0 14.237 11.541 25.778 25.778 25.778h320.804c14.237 0 25.778-11.541 25.778-25.778v-460.444c0-14.237-11.541-25.778-25.778-25.778z" fill="#95d6a4"/></g><g><path d="m405.89 33.145-15.866 12.534c-1.669 1.319-4.025 1.319-5.694 0l-17.561-13.872c-1.669-1.319-4.025-1.319-5.694 0l-17.558 13.872c-1.669 1.319-4.025 1.319-5.694 0l-17.558-13.872c-1.669-1.319-4.025-1.319-5.694 0l-17.557 13.871c-1.669 1.319-4.025 1.319-5.694 0l-17.556-13.871c-1.669-1.319-4.025-1.319-5.695 0l-17.553 13.871c-1.669 1.319-4.026 1.319-5.695 0l-17.553-13.87c-1.669-1.319-4.026-1.319-5.695 0l-17.55 13.87c-1.669 1.319-4.026 1.319-5.695 0l-17.555-13.871c-1.669-1.319-4.025-1.319-5.695 0l-17.554 13.871c-1.669 1.319-4.026 1.319-5.695 0l-17.554-13.87c-1.669-1.319-4.026-1.319-5.695 0l-17.553 13.87c-1.669 1.319-4.026 1.319-5.695 0l-15.858-12.532c-1.838-1.453-4.542-.143-4.542 2.2v423.295c0 3.43 1.57 6.672 4.262 8.799l16.139 12.753c1.669 1.319 4.026 1.319 5.695 0l17.553-13.87c1.669-1.319 4.026-1.319 5.695 0l17.554 13.871c1.669 1.319 4.026 1.319 5.695 0l17.554-13.871c1.669-1.319 4.025-1.319 5.695 0l17.555 13.871c1.669 1.319 4.026 1.319 5.695 0l17.55-13.87c1.669-1.319 4.026-1.319 5.695 0l17.553 13.87c1.669 1.319 4.026 1.319 5.695 0l17.553-13.87c1.669-1.319 4.025-1.319 5.695 0l17.556 13.871c1.669 1.319 4.025 1.319 5.694 0l17.557-13.871c1.669-1.319 4.025-1.319 5.694 0l17.558 13.872c1.669 1.319 4.025 1.319 5.694 0l17.558-13.872c1.669-1.319 4.025-1.319 5.694 0l17.561 13.872c1.669 1.318 4.025 1.318 5.694 0l16.145-12.754c2.692-2.127 4.263-5.369 4.263-8.8v-423.297c-.002-2.343-2.705-3.652-4.543-2.2zm-271.368 385.909c-13.407 0-24.275-10.868-24.275-24.275s10.868-24.275 24.275-24.275 24.275 10.868 24.275 24.275c.001 13.407-10.868 24.275-24.275 24.275zm0-94.549c-13.407 0-24.275-10.868-24.275-24.275s10.868-24.275 24.275-24.275 24.275 10.868 24.275 24.275c.001 13.406-10.868 24.275-24.275 24.275zm0-94.55c-13.407 0-24.275-10.868-24.275-24.275s10.868-24.275 24.275-24.275 24.275 10.868 24.275 24.275c.001 13.407-10.868 24.275-24.275 24.275zm0-94.55c-13.407 0-24.275-10.868-24.275-24.275s10.868-24.275 24.275-24.275 24.275 10.868 24.275 24.275-10.868 24.275-24.275 24.275z" fill="#f4fbff"/></g><g><path d="m405.89 33.145-15.866 12.534c-1.669 1.319-4.025 1.319-5.694 0l-5.334-4.213v385.739c0 3.431-1.571 6.673-4.263 8.8l-16.145 12.754c-1.669 1.318-4.025 1.318-5.694 0l-17.561-13.872c-1.669-1.319-4.025-1.318-5.694 0l-17.558 13.872c-1.669 1.319-4.025 1.319-5.694 0l-17.558-13.872c-1.669-1.319-4.025-1.319-5.694 0l-17.557 13.871c-1.669 1.319-4.025 1.319-5.694 0l-17.556-13.871c-1.669-1.319-4.025-1.319-5.695 0l-17.553 13.87c-1.669 1.319-4.026 1.319-5.695 0l-17.553-13.87c-1.669-1.319-4.026-1.319-5.695 0l-17.55 13.87c-1.669 1.319-4.026 1.319-5.695 0l-17.555-13.871c-1.669-1.319-4.025-1.319-5.695 0l-17.554 13.871c-1.669 1.319-4.026 1.319-5.695 0l-17.553-13.871c-1.669-1.319-4.026-1.319-5.695 0l-12.214 9.651v14.102c0 3.43 1.57 6.672 4.262 8.799l16.139 12.753c1.669 1.319 4.026 1.319 5.695 0l17.553-13.87c1.669-1.319 4.026-1.319 5.695 0l17.554 13.871c1.669 1.319 4.026 1.319 5.695 0l17.554-13.871c1.669-1.319 4.025-1.319 5.695 0l17.555 13.871c1.669 1.319 4.026 1.319 5.695 0l17.55-13.87c1.669-1.319 4.026-1.319 5.695 0l17.553 13.87c1.669 1.319 4.026 1.319 5.695 0l17.553-13.87c1.669-1.319 4.025-1.319 5.695 0l17.556 13.871c1.669 1.319 4.025 1.319 5.694 0l17.557-13.871c1.669-1.319 4.025-1.319 5.694 0l17.558 13.872c1.669 1.319 4.025 1.319 5.694 0l17.558-13.872c1.669-1.319 4.025-1.319 5.694 0l17.561 13.872c1.669 1.318 4.025 1.318 5.694 0l16.145-12.754c2.692-2.127 4.263-5.369 4.263-8.8v-423.295c-.001-2.343-2.704-3.652-4.542-2.2z" fill="#e4f6ff"/></g><g><g><path d="m112.063 126.025h-41.889c-8.542 0-15.467-6.925-15.467-15.467s6.925-15.467 15.467-15.467h41.889c8.542 0 15.467 6.925 15.467 15.467s-6.925 15.467-15.467 15.467z" fill="#365e7d"/></g></g><g><g><path d="m112.063 221.147h-41.889c-8.542 0-15.467-6.925-15.467-15.467s6.925-15.467 15.467-15.467h41.889c8.542 0 15.467 6.925 15.467 15.467s-6.925 15.467-15.467 15.467z" fill="#365e7d"/></g></g><g><g><path d="m112.063 316.268h-41.889c-8.542 0-15.467-6.925-15.467-15.467s6.925-15.467 15.467-15.467h41.889c8.542 0 15.467 6.925 15.467 15.467s-6.925 15.467-15.467 15.467z" fill="#365e7d"/></g></g><g><g><path d="m112.063 411.389h-41.889c-8.542 0-15.467-6.925-15.467-15.467s6.925-15.467 15.467-15.467h41.889c8.542 0 15.467 6.925 15.467 15.467s-6.925 15.467-15.467 15.467z" fill="#365e7d"/></g></g><g fill="#2b4d66"><path d="m113.621 95.171c.005.169.026.334.026.504 0 8.542-6.925 15.467-15.467 15.467h-41.89c-.526 0-1.045-.027-1.557-.079.268 8.306 7.069 14.963 15.441 14.963h41.889c8.542 0 15.467-6.925 15.467-15.467 0-8.016-6.099-14.607-13.909-15.388z"/><path d="m113.621 190.292c.005.169.026.334.026.504 0 8.542-6.925 15.467-15.467 15.467h-41.89c-.526 0-1.045-.027-1.557-.079.268 8.306 7.069 14.963 15.441 14.963h41.889c8.542 0 15.467-6.925 15.467-15.467 0-8.016-6.099-14.607-13.909-15.388z"/><path d="m113.621 285.413c.005.169.026.334.026.504 0 8.542-6.925 15.467-15.467 15.467h-41.89c-.526 0-1.045-.027-1.557-.079.268 8.306 7.069 14.963 15.441 14.963h41.889c8.542 0 15.467-6.925 15.467-15.467 0-8.016-6.099-14.607-13.909-15.388z"/><path d="m113.621 380.534c.005.169.026.334.026.504 0 8.542-6.925 15.467-15.467 15.467h-41.89c-.526 0-1.045-.027-1.557-.079.268 8.306 7.069 14.963 15.441 14.963h41.889c8.542 0 15.467-6.925 15.467-15.467 0-8.016-6.099-14.607-13.909-15.388z"/></g><g><path d="m361.326 260.887h-106.426c-4.271 0-7.733-3.462-7.733-7.733s3.462-7.733 7.733-7.733h106.426c4.271 0 7.733 3.462 7.733 7.733s-3.462 7.733-7.733 7.733z" fill="#d3effb"/></g><g><path d="m361.326 397.256h-106.426c-4.271 0-7.733-3.462-7.733-7.733s3.462-7.733 7.733-7.733h106.426c4.271 0 7.733 3.462 7.733 7.733s-3.462 7.733-7.733 7.733z" fill="#d3effb"/></g><g><g fill="#80b4fb"><path d="m211.335 168.991c-.015 0-.029 0-.044 0-5.384.03-11.164.051-15.572.055v-58.948c0-4.271-3.462-7.733-7.733-7.733s-7.733 3.462-7.733 7.733v66.625c0 3.769 2.717 6.988 6.431 7.623.55.095 17.111.153 24.694.111 4.271-.024 7.713-3.505 7.69-7.777-.025-4.255-3.482-7.689-7.733-7.689z"/><path d="m242.771 102.366c-4.271 0-7.733 3.462-7.733 7.733v66.681c0 4.271 3.462 7.733 7.733 7.733s7.733-3.462 7.733-7.733v-66.681c0-4.271-3.462-7.733-7.733-7.733z"/><path d="m306.404 137.881c-8.291-3.059-16.003-6.392-18.262-7.382-2.121-1.65-2.053-3.979-1.914-4.944.186-1.291 1.115-4.445 5.726-5.833 9.72-2.931 18.668 4.162 18.906 4.353 3.27 2.714 8.12 2.285 10.859-.974 2.748-3.27 2.326-8.148-.944-10.896-.619-.52-15.374-12.686-33.282-7.293-8.979 2.706-15.33 9.773-16.574 18.445-1.166 8.123 2.354 15.937 9.187 20.392.341.223.7.418 1.072.584.385.171 9.55 4.251 19.873 8.059 3.066 1.131 10.092 4.345 9.127 9.748-.709 3.97-5.481 8.078-12.24 8.078-6.795 0-13.34-2.745-17.507-7.344-2.869-3.166-7.76-3.404-10.923-.538-3.165 2.868-3.406 7.759-.538 10.923 7.05 7.78 17.879 12.425 28.968 12.425 13.761 0 25.312-8.758 27.466-20.826 1.617-9.058-2.526-20.901-19-26.977z"/><path d="m379.739 103.536h-36.826c-4.271 0-7.733 3.462-7.733 7.733s3.462 7.733 7.733 7.733h10.605v58.948c0 4.271 3.462 7.733 7.733 7.733s7.733-3.462 7.733-7.733v-58.948h10.754c4.271 0 7.733-3.462 7.733-7.733s-3.461-7.733-7.732-7.733z"/></g><path d="m387.472 111.269c0-4.271-3.462-7.733-7.733-7.733h-.743v15.467h.743c4.271-.001 7.733-3.462 7.733-7.734z" fill="#61a2f9"/></g><g><path d="m202.069 273.495c-1.979 0-3.958-.755-5.469-2.265l-12.608-12.608c-3.02-3.021-3.02-7.917 0-10.937 3.021-3.019 7.917-3.019 10.937 0l7.139 7.14 19.505-19.506c3.021-3.019 7.917-3.019 10.937 0 3.02 3.021 3.02 7.917 0 10.937l-24.973 24.973c-1.509 1.511-3.489 2.266-5.468 2.266z" fill="#95d6a4"/></g><g><path d="m361.326 328.95h-106.426c-4.271 0-7.733-3.462-7.733-7.733s3.462-7.733 7.733-7.733h106.426c4.271 0 7.733 3.462 7.733 7.733s-3.462 7.733-7.733 7.733z" fill="#d3effb"/></g><g><path d="m202.069 341.558c-1.979 0-3.958-.755-5.469-2.265l-12.608-12.608c-3.02-3.021-3.02-7.917 0-10.937 3.021-3.019 7.917-3.019 10.937 0l7.139 7.14 19.505-19.506c3.021-3.019 7.917-3.019 10.937 0 3.02 3.021 3.02 7.917 0 10.937l-24.973 24.973c-1.509 1.511-3.489 2.266-5.468 2.266z" fill="#95d6a4"/></g><g><path d="m202.069 409.622c-1.979 0-3.958-.755-5.469-2.265l-12.608-12.608c-3.02-3.021-3.02-7.917 0-10.937 3.021-3.019 7.917-3.019 10.937 0l7.139 7.14 19.505-19.505c3.021-3.019 7.917-3.019 10.937 0 3.02 3.021 3.02 7.917 0 10.937l-24.973 24.973c-1.509 1.509-3.489 2.265-5.468 2.265z" fill="#95d6a4"/></g></g></svg>